<svg xmlns="http://www.w3.org/2000/svg" viewBox="0 0 120 120" width="120" height="120">
  <defs>
    <linearGradient id="a" x1="0" y1="0" x2="120" y2="120" gradientUnits="userSpaceOnUse">
      <stop offset="0%" stop-color="#a78bfa"/><stop offset="100%" stop-color="#7c3aed"/>
    </linearGradient>
  </defs>
  <rect width="120" height="120" rx="28" fill="url(#a)"/>
  <!-- Open book -->
  <path d="M60 46 C48 40 24 38 18 42 L18 90 C24 86 48 88 60 94" fill="white" opacity="0.9"/>
  <path d="M60 46 C72 40 96 38 102 42 L102 90 C96 86 72 88 60 94" fill="white" opacity="0.75"/>
  <!-- Book spine -->
  <line x1="60" y1="46" x2="60" y2="94" stroke="#ddd6fe" stroke-width="2"/>
  <!-- Page lines left -->
  <line x1="28" y1="56" x2="52" y2="54" stroke="#c4b5fd" stroke-width="2" stroke-linecap="round" opacity="0.5"/>
  <line x1="28" y1="64" x2="52" y2="62" stroke="#c4b5fd" stroke-width="2" stroke-linecap="round" opacity="0.4"/>
  <line x1="28" y1="72" x2="52" y2="70" stroke="#c4b5fd" stroke-width="2" stroke-linecap="round" opacity="0.3"/>
  <!-- Worm character popping out -->
  <path d="M70 44 Q74 18 82 14 Q90 10 88 22 Q86 30 80 38" fill="#a3e635" stroke="#65a30d" stroke-width="2"/>
  <!-- Worm face -->
  <circle cx="84" cy="16" r="8" fill="#a3e635" stroke="#65a30d" stroke-width="2"/>
  <circle cx="81" cy="14" r="2.5" fill="#1c1917"/>
  <circle cx="88" cy="14" r="2.5" fill="#1c1917"/>
  <circle cx="81.5" cy="13.5" r="1" fill="white"/>
  <circle cx="88.5" cy="13.5" r="1" fill="white"/>
  <path d="M82 19 Q85 22 88 19" stroke="#65a30d" stroke-width="1.5" stroke-linecap="round" fill="none"/>
  <!-- Glasses on worm -->
  <circle cx="81" cy="14" r="4.5" stroke="#7c3aed" stroke-width="1.5" fill="none" opacity="0.6"/>
  <circle cx="88" cy="14" r="4.5" stroke="#7c3aed" stroke-width="1.5" fill="none" opacity="0.6"/>
  <line x1="85.5" y1="14" x2="83.5" y2="14" stroke="#7c3aed" stroke-width="1.5" opacity="0.6"/>
</svg>
