<svg xmlns="http://www.w3.org/2000/svg" viewBox="0 0 120 120" width="120" height="120">
  <defs>
    <linearGradient id="a" x1="0" y1="0" x2="120" y2="120" gradientUnits="userSpaceOnUse">
      <stop offset="0%" stop-color="#fbbf24"/><stop offset="100%" stop-color="#f97316"/>
    </linearGradient>
  </defs>
  <rect width="120" height="120" rx="28" fill="url(#a)"/>
  <!-- Headphone band -->
  <path d="M26 54 A34 34 0 0 1 94 54" stroke="white" stroke-width="5" fill="none"/>
  <!-- Ears -->
  <circle cx="32" cy="42" r="14" fill="white"/>
  <circle cx="88" cy="42" r="14" fill="white"/>
  <circle cx="32" cy="42" r="8" fill="#fed7aa"/>
  <circle cx="88" cy="42" r="8" fill="#fed7aa"/>
  <!-- Head -->
  <circle cx="60" cy="62" r="30" fill="white"/>
  <!-- Inner face -->
  <ellipse cx="60" cy="68" rx="18" ry="14" fill="#fef3c7"/>
  <!-- Eyes -->
  <circle cx="48" cy="56" r="5" fill="#1c1917"/>
  <circle cx="72" cy="56" r="5" fill="#1c1917"/>
  <circle cx="49.5" cy="54.5" r="2" fill="white"/>
  <circle cx="73.5" cy="54.5" r="2" fill="white"/>
  <!-- Nose -->
  <ellipse cx="60" cy="66" rx="5" ry="4" fill="#1c1917"/>
  <ellipse cx="60" cy="65" rx="2" ry="1" fill="white" opacity="0.5"/>
  <!-- Smile -->
  <path d="M54 72 Q60 78 66 72" stroke="#f97316" stroke-width="2" stroke-linecap="round" fill="none"/>
  <!-- Headphone pads -->
  <rect x="18" y="50" width="12" height="18" rx="6" fill="white"/>
  <rect x="90" y="50" width="12" height="18" rx="6" fill="white"/>
  <rect x="20" y="52" width="8" height="14" rx="4" fill="#fed7aa"/>
  <rect x="92" y="52" width="8" height="14" rx="4" fill="#fed7aa"/>
  <!-- Mic -->
  <line x1="18" y1="68" x2="18" y2="80" stroke="white" stroke-width="3" stroke-linecap="round"/>
  <circle cx="18" cy="82" r="4" fill="white"/>
</svg>
