<svg xmlns="http://www.w3.org/2000/svg" viewBox="0 0 120 120" width="120" height="120">
  <defs>
    <linearGradient id="a" x1="0" y1="0" x2="120" y2="120" gradientUnits="userSpaceOnUse">
      <stop offset="0%" stop-color="#2dd4bf"/><stop offset="100%" stop-color="#0ea5e9"/>
    </linearGradient>
  </defs>
  <rect width="120" height="120" rx="28" fill="url(#a)"/>
  <!-- Antenna -->
  <line x1="60" y1="14" x2="60" y2="28" stroke="white" stroke-width="3" stroke-linecap="round"/>
  <circle cx="60" cy="12" r="5" fill="white"/>
  <circle cx="60" cy="12" r="3" fill="#2dd4bf"/>
  <!-- Head -->
  <rect x="28" y="28" width="64" height="48" rx="18" fill="white"/>
  <!-- Screen face -->
  <rect x="36" y="36" width="48" height="32" rx="10" fill="#ecfeff"/>
  <!-- Eyes -->
  <rect x="44" y="44" width="10" height="12" rx="4" fill="#0ea5e9"/>
  <rect x="66" y="44" width="10" height="12" rx="4" fill="#0ea5e9"/>
  <rect x="46" y="46" width="3" height="4" rx="1.5" fill="white"/>
  <rect x="68" y="46" width="3" height="4" rx="1.5" fill="white"/>
  <!-- Happy pixel mouth -->
  <rect x="48" y="60" width="4" height="4" rx="1" fill="#0ea5e9" opacity="0.6"/>
  <rect x="54" y="62" width="4" height="4" rx="1" fill="#0ea5e9" opacity="0.6"/>
  <rect x="60" y="62" width="4" height="4" rx="1" fill="#0ea5e9" opacity="0.6"/>
  <rect x="66" y="60" width="4" height="4" rx="1" fill="#0ea5e9" opacity="0.6"/>
  <!-- Body -->
  <rect x="40" y="78" width="40" height="20" rx="8" fill="white" opacity="0.8"/>
  <!-- Arms -->
  <rect x="16" y="56" width="14" height="8" rx="4" fill="white" opacity="0.7"/>
  <rect x="90" y="56" width="14" height="8" rx="4" fill="white" opacity="0.7"/>
  <!-- Gears on body -->
  <circle cx="52" cy="88" r="5" stroke="white" stroke-width="2" fill="#a5f3fc" opacity="0.6"/>
  <circle cx="68" cy="88" r="5" stroke="white" stroke-width="2" fill="#a5f3fc" opacity="0.6"/>
</svg>
