<svg xmlns="http://www.w3.org/2000/svg" viewBox="0 0 120 120" width="120" height="120">
  <rect width="120" height="120" rx="28" fill="#f5f5f5"/>
  <!-- Shield -->
  <path d="M60 18 L92 34 L92 62 Q92 88 60 102 Q28 88 28 62 L28 34 Z" stroke="#dc2626" stroke-width="2.5" fill="none" opacity="0.85"/>
  <!-- Inner shield -->
  <path d="M60 30 L82 42 L82 60 Q82 80 60 92 Q38 80 38 60 L38 42 Z" stroke="#dc2626" stroke-width="1.5" fill="none" opacity="0.35"/>
  <!-- Checkmark -->
  <path d="M46 58 L56 68 L76 48" stroke="#dc2626" stroke-width="3.5" stroke-linecap="round" stroke-linejoin="round" fill="none"/>
  <!-- Corner nodes -->
  <circle cx="16" cy="18" r="2.5" fill="#dc2626" opacity="0.3"/>
  <circle cx="104" cy="18" r="2.5" fill="#dc2626" opacity="0.3"/>
  <circle cx="16" cy="102" r="2.5" fill="#dc2626" opacity="0.3"/>
  <circle cx="104" cy="102" r="2.5" fill="#dc2626" opacity="0.3"/>
  <line x1="16" y1="18" x2="28" y2="34" stroke="#dc2626" stroke-width="0.8" opacity="0.2"/>
  <line x1="104" y1="18" x2="92" y2="34" stroke="#dc2626" stroke-width="0.8" opacity="0.2"/>
</svg>
