<svg xmlns="http://www.w3.org/2000/svg" width="1024" height="1024" viewBox="0 0 1024 1024">
<g>
<path d="M 651.97 528.51 C645.11,529.71 632.35,530.00 584.75,530.00 C546.25,530.00 526.00,529.66 526.00,529.00 C526.00,528.45 527.01,528.00 528.25,527.99 C532.45,527.98 565.45,519.26 575.50,515.50 C603.43,505.07 625.14,491.93 641.53,475.53 C653.64,463.41 659.23,455.02 661.06,446.22 C663.17,436.06 659.66,424.43 652.69,418.46 C646.24,412.95 639.66,411.00 627.46,411.00 C621.69,411.00 617.00,410.58 617.00,410.07 C617.00,408.98 610.99,407.25 594.50,403.58 C558.49,395.57 542.78,389.09 529.48,376.77 C514.53,362.93 513.58,345.03 526.94,329.07 C531.77,323.30 539.14,317.94 539.75,319.75 C539.98,320.44 540.77,321.00 541.50,321.00 C542.23,321.00 543.06,320.44 543.34,319.75 C543.63,319.02 543.88,319.26 543.92,320.31 C543.96,321.30 544.45,321.84 545.00,321.50 C545.55,321.16 546.00,321.43 546.00,322.10 C546.00,322.84 546.85,322.57 548.17,321.40 C550.31,319.53 550.33,319.53 549.55,321.50 C544.56,334.23 549.09,344.35 560.91,346.89 C563.76,347.50 575.86,348.05 587.80,348.12 C599.73,348.18 608.18,348.52 606.56,348.87 C603.12,349.61 603.12,350.98 606.54,352.78 C607.88,353.48 609.24,355.28 609.57,356.78 C610.36,360.44 611.93,363.54 614.23,366.02 C615.29,367.15 616.82,370.06 617.65,372.48 C618.99,376.42 619.65,377.05 623.83,378.39 C629.69,380.28 638.17,381.85 648.55,382.97 C660.14,384.22 666.78,388.51 676.45,401.00 C684.65,411.60 687.73,420.64 688.84,437.39 C689.72,450.72 689.30,450.01 700.28,457.23 C702.91,458.96 705.30,461.36 705.60,462.56 C705.91,463.76 707.24,465.25 708.58,465.85 C710.76,466.85 711.46,468.06 711.12,470.25 C711.05,470.66 711.48,471.00 712.07,471.00 C712.66,471.00 713.82,471.67 714.64,472.50 C715.47,473.33 717.47,474.00 719.08,474.00 L 722.03 474.00 L 718.63 480.75 C705.87,506.07 681.92,523.24 651.97,528.51 ZM 484.35 529.35 C474.68,530.17 298.54,530.21 297.73,529.40 C296.83,528.50 300.85,520.44 306.15,512.50 C310.80,505.53 320.78,495.18 328.62,489.19 C335.58,483.87 353.13,475.47 362.55,472.95 C371.38,470.59 372.33,470.55 432.00,469.91 C497.02,469.22 496.77,469.24 515.56,463.51 C520.17,462.10 526.09,460.04 528.72,458.92 C532.56,457.28 533.18,457.20 531.90,458.51 C530.50,459.92 528.65,460.64 525.69,460.92 C525.25,460.97 525.16,461.45 525.50,462.00 C525.84,462.55 525.68,463.00 525.16,463.00 C524.63,463.00 525.09,465.50 526.19,468.54 C527.28,471.59 527.94,474.71 527.65,475.48 C526.69,477.98 515.71,484.27 504.50,488.76 C498.45,491.17 490.97,494.24 487.87,495.58 C484.78,496.91 480.51,498.01 478.37,498.02 C474.03,498.03 470.50,499.75 472.88,500.70 C473.63,501.00 474.99,501.99 475.89,502.89 C476.79,503.79 478.33,504.37 479.31,504.18 C483.07,503.45 485.96,509.31 482.50,510.64 C480.27,511.50 480.64,512.57 484.50,516.43 C487.97,519.90 488.92,522.00 487.01,522.00 C486.47,522.00 486.12,523.12 486.23,524.50 C486.40,526.52 486.97,527.00 489.22,527.00 C490.75,527.00 492.00,527.38 492.00,527.85 C492.00,528.32 488.56,529.00 484.35,529.35 ZM 306.81 506.29 C303.53,510.57 299.54,516.58 297.93,519.64 L 295.00 525.20 L 295.14 445.85 C295.22,402.21 295.61,370.25 296.01,374.83 C296.90,385.05 298.24,386.94 303.18,384.98 C305.01,384.26 307.17,383.11 308.00,382.43 C309.64,381.07 321.46,377.00 323.76,377.00 C324.54,377.00 326.34,376.09 327.75,374.98 C329.16,373.87 332.77,372.25 335.78,371.38 C339.26,370.36 341.41,369.15 341.70,368.03 C341.96,367.06 344.38,365.23 347.08,363.96 C349.79,362.69 352.00,361.06 352.00,360.33 C352.00,359.60 352.87,359.00 353.93,359.00 C356.27,359.00 356.99,356.96 357.98,347.60 C358.40,343.60 358.86,367.87 359.03,403.25 C359.20,437.76 359.37,466.73 359.42,467.61 C359.47,468.71 357.76,469.78 354.00,470.99 C336.01,476.76 320.51,488.36 306.81,506.29 ZM 675.50 737.00 C664.80,739.74 644.69,739.71 634.00,736.95 C616.55,732.45 603.69,723.41 597.08,710.99 C590.50,698.66 589.87,694.63 589.48,662.50 C589.25,643.69 589.43,635.44 589.99,639.01 C590.47,642.04 591.46,645.66 592.19,647.06 C593.53,649.65 595.49,649.91 606.50,648.98 C607.60,648.88 609.47,649.12 610.66,649.50 C612.17,649.98 613.44,649.56 614.91,648.09 L 617.00 646.00 L 617.02 662.75 C617.03,680.53 618.66,690.52 622.87,698.71 C633.28,718.95 672.13,720.62 684.87,701.38 C689.78,693.98 691.07,688.22 691.13,673.50 C691.18,662.20 692.49,646.49 692.87,652.75 C692.94,653.99 693.45,655.00 694.00,655.00 C694.55,655.00 695.00,655.96 695.00,657.12 C695.00,658.70 695.32,658.98 696.25,658.22 C696.94,657.66 698.62,657.04 700.00,656.85 C701.38,656.66 702.75,656.17 703.05,655.77 C703.35,655.36 705.42,654.87 707.64,654.67 C709.86,654.47 713.19,653.55 715.03,652.64 C717.12,651.59 718.72,651.32 719.31,651.91 C719.87,652.47 720.06,661.29 719.77,673.68 C719.31,693.30 719.12,694.93 716.52,702.00 C709.75,720.41 696.65,731.59 675.50,737.00 ZM 310.03 735.95 C300.82,737.09 238.75,737.42 237.67,736.33 C237.30,735.97 237.00,719.75 237.00,700.29 L 237.00 664.92 L 239.74 667.46 C242.75,670.25 247.62,670.82 251.32,668.81 C252.52,668.16 254.18,667.51 255.00,667.38 C255.82,667.25 258.13,666.72 260.13,666.20 L 263.76 665.26 L 264.38 669.77 C264.72,672.25 265.00,682.99 265.00,693.64 L 265.00 713.00 L 284.95 713.00 C306.59,713.00 312.24,712.23 321.66,707.98 C337.76,700.73 346.01,685.26 344.70,664.80 C344.14,656.11 344.14,656.10 346.37,656.95 C347.66,657.44 349.32,657.40 350.28,656.86 C351.20,656.35 355.00,655.68 358.72,655.36 C363.13,655.00 366.49,654.10 368.33,652.81 C369.88,651.72 371.39,651.05 371.67,651.33 C372.99,652.66 373.95,660.48 373.98,670.14 C374.00,678.64 373.48,682.55 371.44,689.62 C367.93,701.71 364.72,707.27 356.39,715.66 C350.72,721.36 347.36,723.74 339.89,727.35 C329.39,732.42 322.48,734.41 310.03,735.95 ZM 466.66 737.51 C455.92,739.55 436.72,739.34 426.00,737.04 C416.32,734.97 405.61,731.11 399.01,727.32 C394.99,725.01 392.88,723.93 392.31,722.32 C391.71,720.62 392.80,718.33 395.16,713.37 C395.37,712.93 395.59,712.46 395.83,711.97 C400.30,702.53 402.69,700.07 404.52,703.02 C405.68,704.91 418.42,710.74 426.50,713.08 C437.20,716.18 457.68,716.48 465.77,713.66 C476.38,709.97 481.15,701.87 477.26,694.18 C474.56,688.83 467.41,685.63 450.00,681.98 C420.70,675.83 410.98,671.96 402.74,663.15 C397.63,657.69 396.32,655.12 400.66,659.08 C402.12,660.41 403.08,661.05 402.79,660.50 C402.50,659.95 403.13,658.61 404.19,657.51 C406.12,655.53 406.12,655.53 405.37,657.51 C404.74,659.20 404.85,659.31 406.15,658.26 C407.00,657.58 407.98,657.31 408.34,657.68 C409.47,658.80 420.00,659.10 420.00,658.01 C420.00,657.45 420.48,657.00 421.06,657.00 C421.64,657.00 421.81,657.50 421.43,658.11 C420.99,658.82 421.42,659.03 422.62,658.69 C426.97,657.49 432.46,656.95 431.10,657.86 C430.14,658.51 431.43,658.91 435.34,659.15 C440.58,659.48 444.82,658.15 443.32,656.65 C441.99,655.33 447.06,656.09 462.30,659.50 C485.23,664.64 492.08,667.75 499.78,676.49 C505.50,682.99 507.34,689.08 506.82,699.86 C506.45,707.31 505.93,709.37 503.02,714.83 C496.74,726.58 484.76,734.06 466.66,737.51 ZM 786.76 692.25 L 786.50 736.50 L 772.94 736.78 C765.49,736.93 759.08,736.74 758.69,736.36 C758.31,735.98 758.06,716.28 758.13,692.58 C758.20,668.89 758.54,650.85 758.88,652.50 C760.16,658.68 760.86,659.10 770.11,659.10 C782.26,659.10 785.00,657.71 785.00,651.57 C785.00,649.61 785.45,648.00 786.01,648.00 C786.68,648.00 786.93,662.94 786.76,692.25 ZM 472.42 304.43 L 468.72 310.00 L 452.11 309.82 C442.97,309.72 437.65,309.47 440.27,309.26 C442.93,309.06 444.79,308.47 444.47,307.94 C444.14,307.42 444.35,307.00 444.93,307.00 C445.51,307.00 446.90,306.21 448.02,305.25 C449.15,304.29 450.39,303.48 450.78,303.46 C452.71,303.35 458.00,299.79 458.00,298.60 C458.00,296.02 465.56,286.52 475.16,277.04 C483.98,268.32 485.84,267.01 496.66,261.84 C503.17,258.73 511.88,255.16 516.00,253.91 C529.22,249.91 529.01,249.56 513.00,248.96 C504.15,248.63 513.69,248.36 537.50,248.27 C561.17,248.18 575.63,248.48 574.28,249.02 C573.07,249.51 568.40,250.61 563.91,251.46 C538.87,256.21 518.62,264.34 499.83,277.18 C490.32,283.69 478.18,295.75 472.42,304.43 ZM 405.23 664.83 C406.20,665.80 406.59,665.68 407.09,664.28 C407.89,662.04 407.26,660.32 405.40,659.60 C404.22,659.15 404.16,659.43 405.08,661.14 C405.88,662.63 405.88,663.04 405.10,662.56 C403.61,661.64 403.70,663.30 405.23,664.83 ZM 509.00 254.00 C509.00,254.55 508.58,255.00 508.06,255.00 C507.54,255.00 506.84,254.55 506.50,254.00 C506.16,253.45 506.58,253.00 507.44,253.00 C508.30,253.00 509.00,253.45 509.00,254.00 Z" fill="rgb(184,2,3)"/>
<path d="M 452.11 309.82 L 468.72 310.00 L 363.15 310.00 L 361.05 312.66 C358.96,315.32 358.95,315.62 359.02,392.34 L 359.04 404.31 L 359.03 403.25 C358.86,367.87 358.40,343.60 357.98,347.60 C356.99,356.96 356.27,359.00 353.93,359.00 C352.87,359.00 352.00,359.60 352.00,360.33 C352.00,361.06 349.79,362.69 347.08,363.96 C344.38,365.23 341.96,367.06 341.70,368.03 C341.41,369.15 339.26,370.36 335.78,371.38 C332.77,372.25 329.16,373.87 327.75,374.98 C326.34,376.09 324.54,377.00 323.76,377.00 C321.46,377.00 309.64,381.07 308.00,382.43 C307.17,383.11 305.01,384.26 303.18,384.98 C298.24,386.94 296.90,385.05 296.01,374.83 C295.71,371.36 295.41,388.83 295.25,416.45 L 295.26 415.40 L 295.56 305.50 L 298.24 297.62 C304.46,279.36 315.43,266.59 333.00,257.15 C342.57,252.01 353.23,249.04 364.00,248.50 C370.95,248.16 371.59,248.24 367.50,248.93 C352.12,251.53 339.20,255.80 329.64,261.45 C321.85,266.05 308.33,279.62 305.54,285.64 C304.56,287.76 302.46,292.19 300.88,295.49 C297.87,301.74 297.13,307.54 299.24,308.25 C301.20,308.90 308.45,306.39 312.66,303.61 C316.13,301.32 333.60,296.00 337.68,296.00 C340.27,296.00 353.29,289.48 355.40,287.13 C356.45,285.96 358.12,285.00 359.12,285.00 C360.12,285.00 362.41,283.74 364.22,282.20 C366.02,280.66 369.83,277.93 372.67,276.14 C375.52,274.35 378.42,272.20 379.12,271.36 C379.82,270.52 383.85,268.08 388.09,265.96 C392.32,263.83 396.85,260.77 398.14,259.16 C399.44,257.56 402.19,255.46 404.25,254.51 C411.58,251.11 408.25,249.16 394.44,248.75 C394.02,248.74 393.82,248.72 393.82,248.71 C393.82,248.54 430.60,248.35 480.00,248.28 C498.90,248.25 515.72,248.26 529.74,248.31 C511.71,248.42 505.18,248.67 513.00,248.96 C529.01,249.56 529.22,249.91 516.00,253.91 C511.88,255.16 503.17,258.73 496.66,261.84 C485.84,267.01 483.98,268.32 475.16,277.04 C465.56,286.52 458.00,296.02 458.00,298.60 C458.00,299.79 452.71,303.35 450.78,303.46 C450.39,303.48 449.15,304.29 448.02,305.25 C446.90,306.21 445.51,307.00 444.93,307.00 C444.35,307.00 444.14,307.42 444.47,307.94 C444.79,308.47 442.93,309.06 440.27,309.26 C437.65,309.47 442.97,309.72 452.11,309.82 ZM 556.00 396.07 C557.90,397.17 558.18,397.17 559.95,396.05 C561.09,395.33 560.78,394.88 558.45,393.92 C556.81,393.24 555.23,392.57 553.71,391.89 C563.76,396.01 576.63,399.61 594.50,403.58 C610.99,407.25 617.00,408.98 617.00,410.07 C617.00,410.29 617.85,410.49 619.27,410.65 C612.45,410.52 603.35,410.41 591.00,410.27 C546.55,409.78 544.09,409.65 535.20,407.42 C514.62,402.26 501.29,392.30 493.16,376.00 C488.04,365.75 486.51,357.33 487.33,344.00 C488.01,333.00 490.77,323.98 497.21,311.73 C500.66,305.17 503.86,301.19 513.50,291.46 C526.79,278.06 533.23,273.42 549.50,265.55 C568.28,256.46 586.13,251.28 606.21,249.07 C611.93,248.44 638.94,248.00 671.96,248.00 L 728.00 248.00 L 728.00 250.31 C728.00,254.29 724.03,268.02 721.32,273.38 C712.84,290.19 696.96,302.52 676.50,308.16 C668.86,310.26 666.11,310.39 615.00,310.93 C567.64,311.43 561.16,311.69 558.50,313.17 C553.73,315.81 550.52,319.55 548.81,323.59 C549.03,322.90 549.28,322.21 549.55,321.50 C550.33,319.53 550.31,319.53 548.17,321.40 C546.85,322.57 546.00,322.84 546.00,322.10 C546.00,321.43 545.55,321.16 545.00,321.50 C544.45,321.84 543.96,321.30 543.92,320.31 C543.88,319.26 543.63,319.02 543.34,319.75 C543.06,320.44 542.23,321.00 541.50,321.00 C540.77,321.00 539.98,320.44 539.75,319.75 C539.14,317.94 531.77,323.30 526.94,329.07 C521.48,335.59 518.41,342.44 517.71,349.20 C518.10,336.33 521.49,331.70 541.86,314.60 C551.83,306.23 554.95,304.27 571.15,296.19 C582.95,290.30 583.84,289.66 584.42,286.55 C584.96,283.72 585.82,282.88 590.27,280.90 C596.59,278.08 608.33,277.73 625.50,279.87 C631.55,280.62 639.61,281.01 643.42,280.74 C650.12,280.26 650.47,280.10 654.64,275.62 C657.01,273.07 659.60,269.76 660.38,268.25 C661.17,266.74 662.98,264.41 664.40,263.08 C665.83,261.74 667.00,260.05 667.00,259.33 C667.00,258.60 667.58,258.00 668.28,258.00 C669.83,258.00 673.07,254.40 672.25,253.58 C671.93,253.26 672.19,253.00 672.83,253.00 C673.47,253.00 674.00,252.36 674.00,251.58 C674.00,250.80 674.56,249.94 675.25,249.66 C675.94,249.38 662.55,249.13 645.50,249.09 C620.07,249.03 613.60,249.30 609.50,250.58 C606.75,251.44 601.12,253.04 597.00,254.14 C571.44,260.93 543.89,271.91 532.06,280.01 C509.23,295.65 495.86,314.44 491.95,336.40 C490.23,346.05 491.34,361.78 494.12,367.24 C496.66,372.22 497.09,372.66 503.67,377.18 C507.71,379.96 509.89,380.76 513.67,380.85 C519.76,381.00 524.17,382.28 527.95,384.97 C531.28,387.33 541.98,391.13 543.20,390.37 C543.64,390.10 544.00,390.31 544.00,390.83 C544.00,391.35 546.36,392.54 549.25,393.48 C552.14,394.42 555.17,395.59 556.00,396.07 ZM 491.18 528.56 C490.53,528.64 489.82,528.71 489.06,528.77 C490.85,528.47 492.00,528.12 492.00,527.85 C492.00,527.38 490.75,527.00 489.22,527.00 C486.97,527.00 486.40,526.52 486.23,524.50 C486.12,523.12 486.47,522.00 487.01,522.00 C488.92,522.00 487.97,519.90 484.50,516.43 C480.64,512.57 480.27,511.50 482.50,510.64 C485.96,509.31 483.07,503.45 479.31,504.18 C478.33,504.37 476.79,503.79 475.89,502.89 C474.99,501.99 473.63,501.00 472.88,500.70 C470.50,499.75 474.03,498.03 478.37,498.02 C480.51,498.01 484.78,496.91 487.87,495.58 C490.97,494.24 498.45,491.17 504.50,488.76 C515.71,484.27 526.69,477.98 527.65,475.48 C527.94,474.71 527.28,471.59 526.19,468.54 C525.09,465.50 524.63,463.00 525.16,463.00 C525.68,463.00 525.84,462.55 525.50,462.00 C525.16,461.45 525.25,460.97 525.69,460.92 C528.65,460.64 530.50,459.92 531.90,458.51 C533.18,457.20 532.56,457.28 528.72,458.92 C526.09,460.04 520.17,462.10 515.56,463.51 C509.84,465.26 505.88,466.47 501.30,467.33 L 501.51 467.28 C511.37,465.06 527.74,459.69 532.49,457.11 C536.95,454.70 544.43,449.39 545.93,447.58 C547.07,446.21 550.80,446.00 574.00,446.00 C595.81,446.00 600.97,446.26 601.93,447.41 C602.73,448.38 602.77,449.03 602.05,449.47 C601.47,449.83 601.00,452.46 601.00,455.32 C601.00,458.17 600.60,461.91 600.11,463.62 C599.62,465.33 599.54,467.25 599.92,467.88 C600.61,468.99 605.61,468.95 607.55,467.81 C608.07,467.50 609.40,467.61 610.50,468.05 C611.60,468.50 612.05,468.90 611.50,468.95 C610.95,468.99 611.12,469.42 611.87,469.90 C612.94,470.58 612.51,471.51 609.87,474.18 C608.02,476.06 607.32,476.61 608.33,475.40 C610.13,473.23 610.12,473.20 607.71,473.35 C606.03,473.45 605.43,473.95 605.80,474.92 C606.19,475.94 605.86,476.16 604.62,475.69 C603.52,475.26 603.14,475.41 603.56,476.10 C603.93,476.69 602.71,478.82 600.86,480.83 C598.97,482.89 598.59,483.57 600.00,482.39 C605.57,477.73 605.10,478.97 599.23,484.43 C584.63,497.99 562.24,510.91 540.43,518.36 C528.26,522.52 508.35,526.65 491.18,528.56 ZM 721.49 474.00 L 719.08 474.00 C717.47,474.00 715.47,473.33 714.64,472.50 C713.82,471.67 712.66,471.00 712.07,471.00 C711.48,471.00 711.05,470.66 711.12,470.25 C711.46,468.06 710.76,466.85 708.58,465.85 C707.24,465.25 705.91,463.76 705.60,462.56 C705.30,461.36 702.91,458.96 700.28,457.23 C689.30,450.01 689.72,450.72 688.84,437.39 C687.73,420.64 684.65,411.60 676.45,401.00 C666.78,388.51 660.14,384.22 648.55,382.97 C638.17,381.85 629.69,380.28 623.83,378.39 C619.65,377.05 618.99,376.42 617.65,372.48 C616.82,370.06 615.29,367.15 614.23,366.02 C611.93,363.54 610.36,360.44 609.57,356.78 C609.24,355.28 607.88,353.48 606.54,352.78 C603.12,350.98 603.12,349.61 606.56,348.87 C608.18,348.52 599.73,348.18 587.80,348.12 C575.86,348.05 563.76,347.50 560.91,346.89 C564.21,347.59 580.08,348.00 604.48,348.00 C646.87,348.00 653.91,348.59 668.08,353.36 C691.73,361.31 710.69,377.90 720.40,399.16 C725.91,411.21 727.22,417.75 727.70,435.50 C728.10,450.22 727.93,452.30 725.56,461.49 C724.44,465.85 723.08,470.02 721.49,474.00 ZM 372.11 652.05 C371.97,651.73 371.82,651.49 371.67,651.33 C371.39,651.05 369.88,651.72 368.33,652.81 C366.49,654.10 363.13,655.00 358.72,655.36 C355.00,655.68 351.20,656.35 350.28,656.86 C349.32,657.40 347.66,657.44 346.37,656.95 C344.14,656.10 344.14,656.11 344.70,664.80 C344.71,665.03 344.72,665.26 344.74,665.49 C343.89,654.63 339.53,644.20 331.69,637.44 C321.08,628.28 311.65,626.00 284.43,626.00 L 265.00 626.00 L 265.00 693.64 C265.00,682.99 264.72,672.25 264.38,669.77 L 263.76 665.26 L 260.13 666.20 C258.13,666.72 255.82,667.25 255.00,667.38 C254.18,667.51 252.52,668.16 251.32,668.81 C247.62,670.82 242.75,670.25 239.74,667.46 L 237.14 665.05 C237.24,634.57 237.55,611.85 237.87,613.23 L 238.50 615.97 L 248.50 615.59 C260.40,615.13 265.48,614.38 273.50,611.91 C276.80,610.90 283.70,609.40 288.83,608.60 C293.96,607.79 300.01,606.22 302.27,605.10 C304.63,603.93 306.82,603.42 307.44,603.90 C308.02,604.37 310.08,604.65 312.00,604.53 C316.21,604.27 325.13,605.86 326.45,607.11 C326.97,607.60 328.21,608.00 329.21,608.00 C330.21,608.00 331.79,608.90 332.73,610.00 C333.76,611.20 335.68,612.00 337.53,612.00 C345.04,612.00 361.52,627.01 367.38,639.18 C369.52,643.63 371.06,647.74 372.11,652.05 ZM 459.56 658.89 C446.45,656.00 442.08,655.41 443.32,656.65 C444.82,658.15 440.58,659.48 435.34,659.15 C431.43,658.91 430.14,658.51 431.10,657.86 C432.46,656.95 426.97,657.49 422.62,658.69 C421.42,659.03 420.99,658.82 421.43,658.11 C421.81,657.50 421.64,657.00 421.06,657.00 C420.48,657.00 420.00,657.45 420.00,658.01 C420.00,659.10 409.47,658.80 408.34,657.68 C407.98,657.31 407.00,657.58 406.15,658.26 C404.85,659.31 404.74,659.20 405.37,657.51 C406.12,655.53 406.12,655.53 404.19,657.51 C403.13,658.61 402.50,659.95 402.79,660.50 C403.08,661.05 402.12,660.41 400.66,659.08 C399.14,657.69 398.31,657.10 398.10,657.17 C396.97,655.23 396.21,653.53 396.24,652.72 C396.25,652.29 395.69,649.26 395.00,645.99 C391.64,630.18 400.42,614.67 417.31,606.57 C426.79,602.01 431.08,601.08 446.06,600.34 C458.82,599.71 469.60,600.70 480.41,603.52 C487.64,605.40 500.00,610.99 500.02,612.38 C500.03,613.24 492.45,631.22 491.41,632.82 C491.29,632.99 488.93,631.99 486.16,630.58 C474.74,624.80 456.87,621.57 444.69,623.10 C431.52,624.75 424.00,630.21 424.00,638.13 C424.00,648.57 429.83,652.13 459.56,658.89 ZM 786.77 665.08 C786.68,653.74 786.43,648.00 786.01,648.00 C785.45,648.00 785.00,649.61 785.00,651.57 C785.00,657.71 782.26,659.10 770.11,659.10 C760.86,659.10 760.16,658.68 758.88,652.50 C758.54,650.85 758.20,668.89 758.13,692.58 C758.12,697.91 758.12,703.04 758.13,707.79 C758.05,696.75 758.00,683.28 758.00,668.83 L 758.00 602.00 L 787.01 602.00 ZM 619.21 688.58 C617.67,682.06 617.03,673.95 617.02,662.75 L 617.00 646.00 L 614.91 648.09 C613.44,649.56 612.17,649.98 610.66,649.50 C609.47,649.12 607.60,648.88 606.50,648.98 C595.49,649.91 593.53,649.65 592.19,647.06 C591.46,645.66 590.47,642.04 589.99,639.01 C589.43,635.44 589.25,643.69 589.48,662.50 C589.52,665.77 589.56,668.76 589.61,671.49 C589.48,664.90 589.39,656.82 589.28,646.75 L 588.82 602.00 L 617.90 602.00 L 618.20 645.25 C618.40,673.80 618.48,683.54 619.21,688.58 ZM 576.86 402.25 C579.25,403.05 582.58,403.74 584.24,403.79 C586.99,403.87 587.09,403.76 585.38,402.62 C581.50,400.04 569.14,397.61 571.55,399.90 C572.07,400.40 574.46,401.46 576.86,402.25 ZM 405.23 664.83 C403.70,663.30 403.61,661.64 405.10,662.56 C405.88,663.04 405.88,662.63 405.08,661.14 C404.16,659.43 404.22,659.15 405.40,659.60 C407.26,660.32 407.89,662.04 407.09,664.28 C406.59,665.68 406.20,665.80 405.23,664.83 ZM 399.81 659.85 C400.56,660.76 401.55,661.88 402.74,663.15 C406.59,667.27 410.76,670.31 417.11,673.00 C411.03,670.51 406.87,667.80 403.55,664.48 C402.34,663.27 401.00,661.59 399.81,659.85 ZM 509.00 254.00 C509.00,253.45 508.30,253.00 507.44,253.00 C506.58,253.00 506.16,253.45 506.50,254.00 C506.84,254.55 507.54,255.00 508.06,255.00 C508.58,255.00 509.00,254.55 509.00,254.00 ZM 651.97 528.51 C663.24,526.52 673.67,522.85 682.96,517.70 C673.41,523.23 664.29,526.34 651.97,528.51 ZM 521.94 367.62 C523.84,370.81 526.35,373.88 529.48,376.77 C532.12,379.22 534.86,381.44 537.83,383.48 C530.45,378.68 525.37,373.55 521.94,367.62 ZM 660.02 450.02 C657.48,457.52 651.89,465.16 641.53,475.53 C651.24,465.81 657.27,457.70 660.02,450.02 ZM 295.09 473.14 L 295.00 525.20 L 294.95 525.30 ZM 643.60 413.11 C646.97,414.29 649.84,416.03 652.69,418.46 C654.02,419.60 655.22,420.94 656.28,422.44 C653.33,418.51 648.89,415.21 643.60,413.11 ZM 645.56 713.94 C635.77,711.95 627.04,706.82 622.87,698.71 C622.62,698.22 622.38,697.73 622.15,697.24 C624.64,702.33 627.71,705.79 632.09,708.56 C636.21,711.16 640.81,712.94 645.56,713.94 ZM 548.48 336.89 C550.36,341.66 554.54,345.52 560.91,346.89 C554.51,345.52 550.25,341.92 548.48,336.89 ZM 590.30 688.46 C591.15,698.75 592.94,703.22 597.08,710.99 C592.97,703.29 591.18,699.63 590.30,688.46 ZM 359.10 468.47 L 359.10 469.35 L 354.45 470.84 C356.96,470.01 358.48,469.24 359.10,468.47 ZM 329.31 703.49 C327.00,705.22 324.45,706.73 321.66,707.98 C319.69,708.87 317.88,709.61 316.06,710.22 C320.85,708.54 325.64,706.11 329.31,703.49 ZM 449.57 529.83 C434.80,529.94 415.08,529.99 388.42,529.99 C383.63,529.99 378.92,529.99 374.32,529.98 C400.42,530.00 428.33,529.95 449.57,529.83 ZM 304.23 712.48 C299.47,712.88 293.44,713.00 284.95,713.00 C292.00,713.00 299.21,712.79 304.23,712.48 ZM 517.78 355.76 C518.09,358.22 518.72,360.65 519.67,363.04 C518.52,360.37 517.99,358.45 517.78,355.76 ZM 337.93 694.34 C340.33,690.64 342.10,686.48 343.26,682.10 C342.10,686.62 340.32,690.72 337.93,694.34 ZM 671.35 711.89 C676.98,709.61 681.76,706.06 684.87,701.38 C681.70,706.16 676.91,709.66 671.35,711.89 ZM 373.99 670.14 C373.99,674.32 373.87,677.40 373.50,680.29 C373.87,677.40 373.99,674.33 373.98,670.14 C373.97,668.52 373.94,666.95 373.89,665.46 C373.95,666.96 373.98,668.51 373.99,670.14 ZM 659.28 427.95 C659.62,428.78 659.92,429.63 660.19,430.49 C659.92,429.65 659.62,428.81 659.28,427.95 Z" fill="rgb(232,35,32)"/>
<path d="M 556.00 396.07 C555.17,395.59 552.14,394.42 549.25,393.48 C546.36,392.54 544.00,391.35 544.00,390.83 C544.00,390.31 543.64,390.10 543.20,390.37 C541.98,391.13 531.28,387.33 527.95,384.97 C524.17,382.28 519.76,381.00 513.67,380.85 C509.89,380.76 507.71,379.96 503.67,377.18 C497.09,372.66 496.66,372.22 494.12,367.24 C491.34,361.78 490.23,346.05 491.95,336.40 C495.86,314.44 509.23,295.65 532.06,280.01 C543.89,271.91 571.44,260.93 597.00,254.14 C601.12,253.04 606.75,251.44 609.50,250.58 C613.60,249.30 620.07,249.03 645.50,249.09 C662.55,249.13 675.94,249.38 675.25,249.66 C674.56,249.94 674.00,250.80 674.00,251.58 C674.00,252.36 673.47,253.00 672.83,253.00 C672.19,253.00 671.93,253.26 672.25,253.58 C673.07,254.40 669.83,258.00 668.28,258.00 C667.58,258.00 667.00,258.60 667.00,259.33 C667.00,260.05 665.83,261.74 664.40,263.08 C662.98,264.41 661.17,266.74 660.38,268.25 C659.60,269.76 657.01,273.07 654.64,275.62 C650.47,280.10 650.12,280.26 643.42,280.74 C639.61,281.01 631.55,280.62 625.50,279.87 C608.33,277.73 596.59,278.08 590.27,280.90 C585.82,282.88 584.96,283.72 584.42,286.55 C583.84,289.66 582.95,290.30 571.15,296.19 C554.95,304.27 551.83,306.23 541.86,314.60 C521.49,331.70 518.10,336.33 517.71,349.20 C517.48,351.40 517.50,353.59 517.78,355.76 C517.99,358.45 518.52,360.37 519.67,363.04 C520.29,364.59 521.05,366.12 521.94,367.62 L 521.94 367.62 C525.37,373.55 530.45,378.68 537.83,383.48 C542.40,386.62 547.52,389.36 553.71,391.89 C555.23,392.57 556.81,393.24 558.45,393.92 C560.78,394.88 561.09,395.33 559.95,396.05 C558.18,397.17 557.90,397.17 556.00,396.07 ZM 574.36 248.98 C574.91,248.46 560.59,248.19 537.50,248.27 C534.72,248.28 532.13,248.29 529.74,248.31 C515.72,248.26 498.90,248.25 480.00,248.28 C430.60,248.35 393.82,248.54 393.82,248.71 C393.82,248.72 394.02,248.74 394.44,248.75 C408.25,249.16 411.58,251.11 404.25,254.51 C402.19,255.46 399.44,257.56 398.14,259.16 C396.85,260.77 392.32,263.83 388.09,265.96 C383.85,268.08 379.82,270.52 379.12,271.36 C378.42,272.20 375.52,274.35 372.67,276.14 C369.83,277.93 366.02,280.66 364.22,282.20 C362.41,283.74 360.12,285.00 359.12,285.00 C358.12,285.00 356.45,285.96 355.40,287.13 C353.29,289.48 340.27,296.00 337.68,296.00 C333.60,296.00 316.13,301.32 312.66,303.61 C308.45,306.39 301.20,308.90 299.24,308.25 C297.13,307.54 297.87,301.74 300.88,295.49 C302.46,292.19 304.56,287.76 305.54,285.64 C308.33,279.62 321.85,266.05 329.64,261.45 C339.20,255.80 352.12,251.53 367.50,248.93 C368.62,248.74 369.39,248.60 369.77,248.49 L 447.00 248.24 C497.33,248.08 547.05,248.07 557.50,248.22 L 576.50 248.50 ZM 321.97 605.58 C318.72,604.88 314.52,604.37 312.00,604.53 C310.08,604.65 308.02,604.37 307.44,603.90 C306.82,603.42 304.63,603.93 302.27,605.10 C300.01,606.22 293.96,607.79 288.83,608.60 C283.70,609.40 276.80,610.90 273.50,611.91 C265.48,614.38 260.40,615.13 248.50,615.59 L 238.50 615.97 L 237.87 613.23 C237.55,611.85 237.24,634.57 237.14,665.05 L 237.00 664.92 L 237.00 700.29 C237.00,702.89 237.01,705.43 237.02,707.88 C236.84,696.80 236.66,683.27 236.51,668.75 L 235.78 602.00 L 271.45 602.00 C304.36,602.00 307.85,602.17 316.32,604.14 C318.36,604.61 320.32,605.12 321.97,605.58 ZM 578.55 500.06 C586.33,495.16 593.40,489.84 599.23,484.43 C605.10,478.97 605.57,477.73 600.00,482.39 C598.59,483.57 598.97,482.89 600.86,480.83 C602.71,478.82 603.93,476.69 603.56,476.10 C603.14,475.41 603.52,475.26 604.62,475.69 C605.86,476.16 606.19,475.94 605.80,474.92 C605.43,473.95 606.03,473.45 607.71,473.35 C610.12,473.20 610.13,473.23 608.33,475.40 C607.32,476.61 608.02,476.06 609.87,474.18 C612.51,471.51 612.94,470.58 611.87,469.90 C611.12,469.42 610.95,468.99 611.50,468.95 C612.05,468.90 611.60,468.50 610.50,468.05 C609.40,467.61 608.07,467.50 607.55,467.81 C605.61,468.95 600.61,468.99 599.92,467.88 C599.54,467.25 599.62,465.33 600.11,463.62 C600.60,461.91 601.00,458.17 601.00,455.32 C601.00,452.46 601.47,449.83 602.05,449.47 C602.77,449.03 602.73,448.38 601.93,447.41 C600.97,446.26 595.81,446.00 574.00,446.00 C550.80,446.00 547.07,446.21 545.93,447.58 C544.43,449.39 536.95,454.70 532.49,457.11 C531.09,457.87 528.67,458.88 525.70,459.98 C532.73,457.07 538.16,453.79 542.29,450.02 L 547.78 445.00 L 629.13 445.00 L 628.45 447.25 C626.78,452.77 620.26,463.56 614.57,470.23 C605.58,480.75 592.83,491.18 578.55,500.06 ZM 295.09 473.14 L 295.00 506.97 L 295.00 418.71 C295.00,415.79 295.00,412.95 295.00,410.18 C295.00,363.61 295.00,337.03 295.52,320.86 L 295.26 415.40 L 295.25 416.45 C295.20,425.32 295.16,435.24 295.14,445.85 ZM 576.86 402.25 C574.46,401.46 572.07,400.40 571.55,399.90 C569.14,397.61 581.50,400.04 585.38,402.62 C587.09,403.76 586.99,403.87 584.24,403.79 C582.58,403.74 579.25,403.05 576.86,402.25 ZM 342.11 613.24 C340.38,612.45 338.82,612.00 337.53,612.00 C335.68,612.00 333.76,611.20 332.73,610.00 C331.79,608.90 330.21,608.00 329.21,608.00 C328.45,608.00 327.54,607.76 326.93,607.43 C327.63,607.76 328.77,608.00 329.80,608.00 C332.32,608.00 337.03,610.12 342.11,613.24 ZM 363.83 248.51 C354.96,248.97 346.15,251.09 337.98,254.71 C341.30,253.17 344.67,251.86 348.00,250.84 L 355.50 248.54 ZM 302.41 287.60 C300.83,290.74 299.45,294.08 298.24,297.62 L 297.17 300.78 C297.75,297.75 298.49,295.58 299.42,293.49 C300.18,291.79 301.07,290.15 302.12,288.15 C302.21,287.97 302.31,287.78 302.41,287.60 ZM 488.66 286.22 C492.44,282.75 496.32,279.58 499.83,277.18 C503.02,275.00 506.25,272.96 509.54,271.04 C502.07,275.43 494.94,280.64 488.66,286.22 ZM 534.83 259.26 C542.62,256.45 550.85,254.15 559.68,252.30 C549.17,254.77 541.59,256.87 534.83,259.26 ZM 372.11 652.05 C371.06,647.74 369.52,643.63 367.38,639.18 C365.64,635.56 362.96,631.70 359.86,628.05 C366.06,635.21 370.04,642.93 372.14,652.12 C372.13,652.10 372.12,652.07 372.11,652.05 ZM 316.64 268.61 C313.08,271.90 309.96,275.48 307.24,279.42 C308.12,278.06 308.94,276.89 309.58,276.06 C311.55,273.54 313.94,271.03 316.64,268.61 ZM 514.81 268.11 C518.61,266.10 522.50,264.24 526.49,262.54 C523.35,263.90 520.18,265.40 516.74,267.12 C516.10,267.44 515.45,267.78 514.81,268.11 ZM 503.55 466.80 C502.85,466.98 502.17,467.14 501.51,467.28 L 501.30 467.33 C501.21,467.35 501.12,467.36 501.03,467.38 C501.19,467.35 501.34,467.31 501.50,467.28 C502.19,467.12 502.88,466.96 503.55,466.80 Z" fill="rgb(240,88,81)"/>
</g>
</svg>