<svg xmlns="http://www.w3.org/2000/svg" viewBox="0 0 120 120" width="120" height="120">
  <defs>
    <linearGradient id="g11" x1="0%" y1="0%" x2="100%" y2="100%">
      <stop offset="0%" stop-color="#64748b"/>
      <stop offset="100%" stop-color="#475569"/>
    </linearGradient>
  </defs>
  <rect width="120" height="120" rx="26" fill="url(#g11)"/>
  <path d="M34 22 L74 22 L90 38 L90 98 A4 4 0 0 1 86 102 L38 102 A4 4 0 0 1 34 98 Z" fill="white" opacity="0.95"/>
  <path d="M74 22 L74 34 A4 4 0 0 0 78 38 L90 38" fill="white" opacity="0.7"/>
  <line x1="46" y1="52" x2="78" y2="52" stroke="#64748b" stroke-width="3" stroke-linecap="round" opacity="0.6"/>
  <line x1="46" y1="62" x2="78" y2="62" stroke="#64748b" stroke-width="3" stroke-linecap="round" opacity="0.5"/>
  <line x1="46" y1="72" x2="68" y2="72" stroke="#64748b" stroke-width="3" stroke-linecap="round" opacity="0.4"/>
  <line x1="46" y1="82" x2="74" y2="82" stroke="#64748b" stroke-width="3" stroke-linecap="round" opacity="0.3"/>
  <circle cx="46" cy="38" r="5" fill="#f59e0b" opacity="0.8"/>
</svg>
