<svg xmlns="http://www.w3.org/2000/svg" viewBox="0 0 120 120" width="120" height="120">
  <defs>
    <linearGradient id="a" x1="0" y1="0" x2="120" y2="120" gradientUnits="userSpaceOnUse">
      <stop offset="0%" stop-color="#60a5fa"/><stop offset="100%" stop-color="#a78bfa"/>
    </linearGradient>
  </defs>
  <rect width="120" height="120" rx="28" fill="url(#a)"/>
  <!-- Ears -->
  <polygon points="30,46 18,12 48,34" fill="#fb923c"/>
  <polygon points="90,46 102,12 72,34" fill="#fb923c"/>
  <polygon points="33,44 24,20 46,36" fill="white"/>
  <polygon points="87,44 96,20 74,36" fill="white"/>
  <!-- Face -->
  <ellipse cx="60" cy="58" rx="32" ry="28" fill="#fb923c"/>
  <!-- White muzzle -->
  <ellipse cx="60" cy="66" rx="18" ry="16" fill="white"/>
  <!-- Eyes -->
  <circle cx="46" cy="52" r="6" fill="white"/>
  <circle cx="74" cy="52" r="6" fill="white"/>
  <circle cx="47" cy="51" r="4" fill="#1c1917"/>
  <circle cx="75" cy="51" r="4" fill="#1c1917"/>
  <circle cx="48.5" cy="49.5" r="1.5" fill="white"/>
  <circle cx="76.5" cy="49.5" r="1.5" fill="white"/>
  <!-- Nose -->
  <ellipse cx="60" cy="62" rx="4" ry="3" fill="#1c1917"/>
  <!-- Mouth -->
  <path d="M56 66 Q60 72 64 66" stroke="#fb923c" stroke-width="1.5" fill="none"/>
  <!-- Magnifying glass held by fox -->
  <circle cx="88" cy="86" r="12" stroke="white" stroke-width="4" fill="none" opacity="0.85"/>
  <line x1="80" y1="94" x2="70" y2="104" stroke="white" stroke-width="4.5" stroke-linecap="round" opacity="0.85"/>
  <circle cx="88" cy="86" r="6" fill="white" opacity="0.15"/>
</svg>
