<svg xmlns="http://www.w3.org/2000/svg" viewBox="0 0 120 120" width="120" height="120">
  <defs>
    <linearGradient id="bg" x1="0" y1="0" x2="120" y2="120" gradientUnits="userSpaceOnUse">
      <stop offset="0%" stop-color="#64748b"/>
      <stop offset="100%" stop-color="#475569"/>
    </linearGradient>
  </defs>
  <rect width="120" height="120" rx="28" fill="url(#bg)"/>
  <!-- Back page -->
  <rect x="34" y="18" width="56" height="72" rx="6" fill="white" opacity="0.3" transform="rotate(4 60 54)"/>
  <!-- Front page -->
  <rect x="30" y="22" width="56" height="72" rx="6" fill="white"/>
  <!-- Folded corner -->
  <path d="M70 22 L86 22 L86 38" fill="white"/>
  <path d="M70 22 L70 38 L86 38" fill="#d1d5db"/>
  <!-- Text lines -->
  <line x1="40" y1="50" x2="72" y2="50" stroke="#94a3b8" stroke-width="3" stroke-linecap="round"/>
  <line x1="40" y1="60" x2="68" y2="60" stroke="#94a3b8" stroke-width="3" stroke-linecap="round" opacity="0.7"/>
  <line x1="40" y1="70" x2="64" y2="70" stroke="#94a3b8" stroke-width="3" stroke-linecap="round" opacity="0.5"/>
  <line x1="40" y1="80" x2="58" y2="80" stroke="#94a3b8" stroke-width="3" stroke-linecap="round" opacity="0.3"/>
  <!-- AI sparkle -->
  <circle cx="88" cy="82" r="14" fill="white" opacity="0.9"/>
  <path d="M88 72 L90 79 L97 79 L91 83 L93 90 L88 86 L83 90 L85 83 L79 79 L86 79Z" fill="#f59e0b"/>
</svg>
